<svg xmlns="http://www.w3.org/2000/svg" viewBox="0 0 24 24">
  <path d="
    M12 1.5
    C12.6 6 13.3 9.2 18.5 9.8
    C13.3 10.4 12.6 13.6 12 18.1
    C11.4 13.6 10.7 10.4 5.5 9.8
    C10.7 9.2 11.4 6 12 1.5
    Z
    M19 3.2
    C19.3 4.8 19.6 5.8 21.5 6
    C19.6 6.2 19.3 7.2 19 8.8
    C18.7 7.2 18.4 6.2 16.5 6
    C18.4 5.8 18.7 4.8 19 3.2
    Z
    M5.2 15.5
    C5.4 16.5 5.6 17.1 6.8 17.3
    C5.6 17.5 5.4 18.1 5.2 19.1
    C5 18.1 4.8 17.5 3.6 17.3
    C4.8 17.1 5 16.5 5.2 15.5
    Z
  "/>
</svg>
